HIERARCHY
ROOT Model_Hips
{
	OFFSET 0.000000 96.915077 0.000000
	CHANNELS 6 Xposition Yposition Zposition Xrotation Yrotation Zrotation
	JOINT Model_Spine
	{
		OFFSET 0.000000 11.137703 -1.289900
		CHANNELS 3 Xrotation Yrotation Zrotation
		JOINT Model_Spine1
		{
			OFFSET 0.000000 12.993942 -1.504922
			CHANNELS 3 Xrotation Yrotation Zrotation
			JOINT Model_Spine2
			{
				OFFSET 0.000000 14.850220 -1.719911
				CHANNELS 3 Xrotation Yrotation Zrotation
				JOINT Model_Neck
				{
					OFFSET 0.000000 16.706543 -1.934903
					CHANNELS 3 Xrotation Yrotation Zrotation
					JOINT Model_Head
					{
						OFFSET 0.000000 10.471298 2.002100
						CHANNELS 3 Xrotation Yrotation Zrotation
						JOINT Model_HeadTop_End
						{
							OFFSET 0.000000 20.842606 3.985100
							CHANNELS 3 Xrotation Yrotation Zrotation
							End Site
							{
								OFFSET 0.000000 21.220154 0.000000
							}
						}
					}
				}
				JOINT Model_LeftShoulder
				{
					OFFSET 7.008500 14.768600 -1.919946
					CHANNELS 3 Xrotation Yrotation Zrotation
					JOINT Model_LeftArm
					{
						OFFSET 14.126271 -3.718048 0.029937
						CHANNELS 3 Xrotation Yrotation Zrotation
						JOINT Model_LeftForeArm
						{
							OFFSET 28.282801 0.000000 0.000000
							CHANNELS 3 Xrotation Yrotation Zrotation
							JOINT Model_LeftHand
							{
								OFFSET 26.204689 0.000000 0.000000
								CHANNELS 3 Xrotation Yrotation Zrotation
								End Site
								{
									OFFSET 26.204704 0.000000 0.000000
								}
							}
						}
					}
				}
				JOINT Model_RightShoulder
				{
					OFFSET -7.008500 14.768555 -1.949840
					CHANNELS 3 Xrotation Yrotation Zrotation
					JOINT Model_RightArm
					{
						OFFSET -14.126281 -3.718018 -0.029932
						CHANNELS 3 Xrotation Yrotation Zrotation
						JOINT Model_RightForeArm
						{
							OFFSET -28.283798 0.000000 -0.000001
							CHANNELS 3 Xrotation Yrotation Zrotation
							JOINT Model_RightHand
							{
								OFFSET -26.204193 0.000000 -0.000001
								CHANNELS 3 Xrotation Yrotation Zrotation
								End Site
								{
									OFFSET -26.204208 0.000000 -0.000001
								}
							}
						}
					}
				}
			}
		}
	}
	JOINT Model_LeftUpLeg
	{
		OFFSET 8.327700 -6.193199 -0.402800
		CHANNELS 3 Xrotation Yrotation Zrotation
		JOINT Model_LeftLeg
		{
			OFFSET 0.735802 -42.108742 -0.610721
			CHANNELS 3 Xrotation Yrotation Zrotation
			JOINT Model_LeftFoot
			{
				OFFSET -0.735806 -36.833748 -0.172876
				CHANNELS 3 Xrotation Yrotation Zrotation
				JOINT Model_LeftToeBase
				{
					OFFSET -0.565857 -11.977769 16.297714
					CHANNELS 3 Xrotation Yrotation Zrotation
					JOINT Model_LeftToe_End
					{
						OFFSET -0.111712 -0.312793 7.857784
						CHANNELS 3 Xrotation Yrotation Zrotation
						End Site
						{
							OFFSET -0.111712 -0.312793 7.857784
						}
					}
				}
			}
		}
	}
	JOINT Model_RightUpLeg
	{
		OFFSET -8.327700 -6.193199 -0.516500
		CHANNELS 3 Xrotation Yrotation Zrotation
		JOINT Model_RightLeg
		{
			OFFSET -0.735785 -42.108738 -0.434061
			CHANNELS 3 Xrotation Yrotation Zrotation
			JOINT Model_RightFoot
			{
				OFFSET 0.735776 -36.833748 -0.021630
				CHANNELS 3 Xrotation Yrotation Zrotation
				JOINT Model_RightToeBase
				{
					OFFSET 0.565817 -11.977745 15.903093
					CHANNELS 3 Xrotation Yrotation Zrotation
					JOINT Model_RightToe_End
					{
						OFFSET 0.111702 -0.312791 7.811342
						CHANNELS 3 Xrotation Yrotation Zrotation
						End Site
						{
							OFFSET 0.111702 -0.312791 7.811342
						}
					}
				}
			}
		}
	}
}
MOTION
Frames: 14
Frame Time: 0.016667
-196.525574 94.871788 -0.352998 -177.556437 0.028966 -176.287155 1.724582 -0.071292 -0.591180 3.446055 -0.185904 -0.712698 3.446055 -0.185904 -0.712698 -0.272394 0.519576 -1.270703 -0.272397 0.519575 -1.270703 0.000000 -0.000000 0.000000 0.629046 -2.929837 -20.347169 -7.009357 -19.459163 -54.068638 24.200287 -6.399614 3.314736 -0.000000 0.000001 0.000002 0.578260 9.717387 9.762102 -1.539218 9.338525 71.360164 31.607383 5.088172 -3.639898 0.000001 0.000000 0.000000 -7.229246 3.512361 -7.196555 25.234156 10.297634 0.162914 -15.783247 0.075774 1.121662 -0.157733 0.005649 -0.007882 0.000000 -0.000000 -0.000000 -22.467026 -5.113921 -3.014930 61.345365 -11.473943 -0.876547 -8.428775 0.581331 -5.461856 -14.957727 -2.454339 9.841731 0.000001 -0.000000 -0.000000 
-196.591766 94.952263 -1.595338 -177.818347 0.022855 -176.880535 1.701500 -0.247519 -0.504073 3.400698 -0.521908 -0.591564 3.400699 -0.521908 -0.591563 -0.295868 0.529818 -1.112449 -0.295869 0.529818 -1.112449 0.000000 0.000000 0.000000 0.578153 -3.534961 -19.652397 -8.096278 -20.771512 -53.672282 22.845832 -7.626710 3.564835 -0.000004 0.000000 -0.000002 0.557830 9.130592 10.246158 -0.215859 8.019277 71.419347 31.562731 5.004234 -3.594354 0.000005 -0.000000 -0.000001 -6.444263 3.620647 -6.627868 24.795520 9.847639 0.144339 -16.407779 0.069469 1.089928 -0.115240 0.006038 -0.007059 0.000000 -0.000001 -0.000000 -23.555405 -5.034617 -1.999475 57.668496 -12.240836 -0.873390 -8.719256 0.522421 -5.326703 -13.684834 -2.035418 8.939890 -0.000002 -0.000000 0.000000 
-196.659119 95.028992 -2.824643 -178.080462 0.016304 -177.432113 1.684395 -0.406774 -0.425031 3.367236 -0.827517 -0.486087 3.367234 -0.827517 -0.486086 -0.318001 0.543474 -0.963403 -0.318013 0.543474 -0.963402 0.000000 0.000000 0.000000 0.538576 -4.070705 -19.064149 -9.165193 -21.921704 -53.132868 21.642373 -8.674346 3.744059 -0.000001 -0.000002 0.000001 0.543821 8.577584 10.673141 1.267080 6.677833 71.522503 30.966152 5.246521 -3.659099 -0.000003 -0.000000 0.000000 -5.612243 3.738835 -6.056510 24.307858 9.509087 0.128165 -17.017647 0.048579 1.051323 -0.045669 0.003135 0.002820 -0.000000 0.000000 -0.000000 -24.442474 -4.926034 -0.881387 53.603116 -13.103832 -0.840896 -8.784000 0.497333 -5.222133 -11.091604 -1.475907 7.901868 -0.000001 0.000001 -0.000000 
-196.727112 95.101715 -4.048177 -178.347031 0.011731 -177.938285 1.670011 -0.553286 -0.355675 3.339106 -1.111059 -0.396119 3.339108 -1.111060 -0.396118 -0.338609 0.562608 -0.829237 -0.338606 0.562606 -0.829237 -0.000000 0.000000 -0.000000 0.507344 -4.524372 -18.595364 -10.186717 -22.953348 -52.472061 20.533767 -9.584635 3.867382 -0.000003 0.000002 0.000001 0.534413 8.081286 11.034762 2.860660 5.405133 71.649538 30.013958 5.728241 -3.797706 -0.000003 0.000000 0.000000 -4.698568 3.824811 -5.530779 23.653104 9.290584 0.119127 -17.549355 0.027252 0.970882 -0.000115 -0.001920 -0.000005 0.000000 0.000001 -0.000000 -25.170579 -4.746616 0.267370 49.049641 -13.872796 -0.789172 -8.262327 0.516217 -5.388174 -7.817490 -0.931355 6.797701 -0.000000 0.000000 0.000000 
-196.792160 95.168785 -5.271454 -178.622820 0.012142 -178.377849 1.654419 -0.691249 -0.297773 3.308450 -1.380634 -0.322898 3.308447 -1.380635 -0.322898 -0.356339 0.587630 -0.712529 -0.356345 0.587629 -0.712529 -0.000000 -0.000000 0.000000 0.482881 -4.895786 -18.236451 -11.129442 -23.904960 -51.726068 19.479761 -10.425555 3.951797 -0.000000 0.000000 0.000001 0.528699 7.652857 11.330736 4.508499 4.259555 71.777700 28.931544 6.351866 -3.972624 -0.000003 0.000000 0.000000 -3.703033 3.865458 -5.091185 22.799207 9.170203 0.116670 -17.975736 0.010868 0.875412 -0.000044 -0.007050 0.000001 -0.000000 -0.000001 -0.000000 -25.676624 -4.474594 1.347322 43.699772 -14.326860 -0.739986 -6.487450 0.555785 -5.952645 -5.803223 -0.574132 5.128381 -0.000000 -0.000000 0.000000 
-196.851379 95.228294 -6.503305 -178.910795 0.023501 -178.736215 1.633896 -0.822766 -0.251779 3.267799 -1.640205 -0.267823 3.267797 -1.640205 -0.267823 -0.369485 0.618671 -0.615153 -0.369497 0.618669 -0.615152 0.000000 0.000000 -0.000000 0.463888 -5.192033 -17.969726 -11.971934 -24.791350 -50.937591 18.467098 -11.254574 4.010841 -0.000001 0.000002 -0.000000 0.525773 7.295138 11.562875 6.158824 3.252956 71.895944 27.908445 7.022818 -4.155681 0.000001 0.000000 -0.000000 -2.624335 3.872228 -4.756531 21.737094 9.103742 0.120341 -18.281083 0.004083 0.785426 -0.122544 -0.010085 0.030193 0.000000 0.000000 -0.000000 -25.847027 -4.122357 2.287746 37.395931 -14.358220 -0.730114 -3.374112 0.557570 -6.822666 -4.231883 -0.358813 3.798825 0.000000 -0.000001 0.000000 
-196.902267 95.277809 -7.754154 -179.209848 0.053852 -179.009614 1.605590 -0.947067 -0.216240 3.211401 -1.888174 -0.231180 3.211402 -1.888175 -0.231180 -0.375599 0.654202 -0.537053 -0.375597 0.654199 -0.537053 -0.000000 0.000000 -0.000000 0.449368 -5.422625 -17.776855 -12.710504 -25.599771 -50.151870 17.505831 -12.098259 4.053332 0.000001 0.000001 -0.000002 0.524824 7.006219 11.731264 7.768582 2.355441 72.011033 27.060626 7.659763 -4.328012 -0.000000 -0.000000 -0.000000 -1.784957 3.898404 -4.500835 21.115685 9.057276 0.121808 -18.535627 0.013560 0.692484 -0.518668 -0.009677 -0.012686 0.000000 0.000000 -0.000000 -25.767701 -3.747892 3.076623 30.779602 -13.962292 -0.777418 -0.352843 0.510721 -7.698494 -1.165392 -0.097353 1.000637 -0.000000 0.000000 0.000000 
-196.943207 95.314835 -9.036532 -179.514010 0.110770 -179.204670 1.567966 -1.061186 -0.189676 3.136140 -2.118691 -0.211409 3.136139 -2.118690 -0.211409 -0.373692 0.693397 -0.478714 -0.373683 0.693398 -0.478714 0.000000 -0.000000 0.000000 0.438729 -5.597783 -17.642935 -13.360275 -26.299626 -49.414568 16.615431 -12.953525 4.084153 -0.000004 -0.000000 0.000000 0.525568 6.780544 11.835359 9.302144 1.512678 72.144706 26.424084 8.199721 -4.474088 -0.000002 -0.000000 -0.000000 -1.097178 3.967890 -4.314246 20.813571 8.990944 0.120542 -18.767891 0.035364 0.609831 -1.231250 -0.005325 -0.096371 0.000000 -0.000000 -0.000000 -25.444516 -3.409790 3.708303 24.121684 -13.067106 -0.854509 2.158105 0.418762 -8.347538 -0.054475 -0.054489 0.004217 0.000001 -0.000000 0.000000 
-196.972977 95.335472 -10.362570 -179.813104 0.197235 -179.336930 1.521290 -1.161771 -0.170176 3.042526 -2.324902 -0.205232 3.042527 -2.324901 -0.205233 -0.364420 0.734574 -0.438901 -0.364435 0.734574 -0.438900 -0.000000 -0.000000 0.000000 0.430953 -5.727671 -17.555166 -13.948207 -26.857629 -48.768459 15.809135 -13.801971 4.106015 0.000002 0.000000 -0.000002 0.527411 6.609462 11.877858 10.727677 0.667801 72.323746 25.972587 8.598782 -4.577667 0.000002 0.000000 -0.000000 -0.570238 4.107031 -4.166949 20.901234 8.877994 0.113217 -19.009422 0.069509 0.516294 -2.285306 0.002895 -0.200613 0.000000 -0.000001 -0.000000 -24.820207 -3.157615 4.197435 17.451728 -11.692055 -0.909681 4.313645 0.293074 -8.580605 -0.094325 -0.014594 0.078519 0.000000 0.000002 0.000000 
-196.991287 95.335152 -11.743400 -180.094726 0.307657 -179.427075 1.467303 -1.246744 -0.155999 2.934115 -2.501959 -0.208108 2.934117 -2.501960 -0.208109 -0.350346 0.775304 -0.414807 -0.350345 0.775308 -0.414806 0.000000 0.000000 0.000000 0.425637 -5.823599 -17.501970 -14.502051 -27.251420 -48.249477 15.083675 -14.628389 4.120262 -0.000003 -0.000002 0.000001 0.530488 6.479784 11.867427 12.016469 -0.220234 72.567659 25.647113 8.830842 -4.621960 0.000000 0.000001 -0.000000 -0.162012 4.324629 -4.028698 21.343481 8.701708 0.097806 -19.266975 0.114830 0.387275 -3.652408 0.014036 -0.279806 0.000000 -0.000001 -0.000000 -24.058168 -3.038495 4.570095 11.315354 -9.983852 -0.874567 5.749408 0.195530 -8.256245 -0.136058 0.033865 0.127954 0.000000 0.000000 0.000000 
-196.997879 95.308250 -13.188692 -180.347102 0.424915 -179.493587 1.409082 -1.317565 -0.148305 2.817227 -2.649878 -0.215049 2.817226 -2.649876 -0.215050 -0.336478 0.813930 -0.402488 -0.336499 0.813933 -0.402486 -0.000000 0.000000 0.000000 0.421284 -5.896027 -17.471001 -15.038326 -27.476326 -47.880924 14.418304 -15.433292 4.126701 0.000000 0.000001 -0.000001 0.533730 6.375280 11.821381 13.144952 -1.165740 72.879061 25.386609 8.885239 -4.594204 -0.000002 -0.000000 0.000000 0.193883 4.610722 -3.872826 22.044156 8.450735 0.073655 -19.526257 0.173412 0.186203 -5.258047 0.024973 -0.272083 0.000000 -0.000001 -0.000000 -23.421921 -3.080704 4.840708 6.403871 -8.166499 -0.726633 6.146833 0.174728 -7.378303 -0.196534 0.077605 0.132913 0.000001 0.000001 0.000000 
-196.993286 95.252914 -14.704555 -180.560941 0.523162 -179.556398 1.349785 -1.376916 -0.143966 2.698279 -2.773230 -0.220956 2.698280 -2.773229 -0.220957 -0.328097 0.848953 -0.397301 -0.328096 0.848958 -0.397301 -0.000000 -0.000000 -0.000000 0.417864 -5.955641 -17.450614 -15.554789 -27.544929 -47.670349 13.781617 -16.236227 4.124096 -0.000002 0.000001 -0.000001 0.537339 6.275936 11.762921 14.097949 -2.154436 73.239579 25.152307 8.764547 -4.490656 0.000004 -0.000001 0.000000 0.566432 4.937974 -3.671782 22.878851 8.121923 0.041435 -19.749975 0.251988 -0.132035 -7.000161 0.029441 -0.118074 0.000000 -0.000000 -0.000000 -23.145535 -3.282834 5.021087 3.269217 -6.498944 -0.539225 5.384001 0.222743 -6.092718 -0.311307 0.103537 0.092132 -0.000001 0.000001 -0.000000 
-196.977615 95.168640 -16.293041 -180.730330 0.572826 -179.631626 1.292156 -1.428087 -0.139140 2.582816 -2.880560 -0.220662 2.582816 -2.880560 -0.220663 -0.329342 0.878755 -0.394219 -0.329328 0.878756 -0.394220 0.000000 -0.000000 0.000000 0.414751 -6.009472 -17.431657 -16.028352 -27.481539 -47.609636 13.142612 -17.070029 4.110950 0.000002 0.000002 -0.000002 0.540660 6.162549 11.718095 14.870143 -3.147948 73.613177 24.941404 8.481985 -4.318974 0.000005 -0.000001 -0.000000 1.036575 5.270736 -3.425251 23.697107 7.744229 0.003221 -19.964622 0.338394 -0.474847 -8.770852 0.019132 0.215646 0.000000 -0.000000 -0.000000 -23.311543 -3.605311 5.121961 2.067365 -5.234830 -0.429773 3.640557 0.283368 -4.644915 -0.515460 0.104637 0.022006 -0.000000 0.000001 0.000000 
-196.950256 95.063309 -17.956709 -180.852290 0.544463 -179.730349 1.237648 -1.476948 -0.130601 2.473820 -2.981479 -0.208344 2.473820 -2.981481 -0.208344 -0.342142 0.903252 -0.389560 -0.342132 0.903249 -0.389561 -0.000000 0.000001 -0.000000 0.411684 -6.060342 -17.409889 -16.419549 -27.313817 -47.679064 12.481127 -17.970098 4.086197 0.000002 0.000002 -0.000002 0.543133 6.019832 11.710052 15.465258 -4.093375 73.954153 24.788416 8.059200 -4.096908 -0.000001 -0.000000 -0.000000 1.667760 5.571169 -3.140626 24.373815 7.360862 -0.037044 -20.192869 0.419227 -0.726694 -10.474813 -0.012716 0.716618 0.000000 -0.000001 -0.000000 -23.814482 -3.976918 5.163868 2.499940 -4.587174 -0.459769 1.364397 0.309057 -3.309563 -0.827477 0.082398 -0.051397 0.000001 -0.000000 0.000000 
